<?xml version="1.0" standalone="no"?>
<!DOCTYPE svg PUBLIC "-//W3C//DTD SVG 20010904//EN"
 "http://www.w3.org/TR/2001/REC-SVG-20010904/DTD/svg10.dtd">
<svg version="1.0" xmlns="http://www.w3.org/2000/svg"
 width="280.000000pt" height="265.000000pt" viewBox="0 0 280.000000 265.000000"
 preserveAspectRatio="xMidYMid meet">

<g transform="translate(0.000000,265.000000) scale(0.100000,-0.100000)"
fill="#000000" stroke="none">
<path d="M1200 2545 c-302 -44 -604 -226 -792 -479 -51 -68 -98 -145 -98 -159
0 -3 13 -7 28 -10 15 -3 57 -32 92 -65 85 -77 132 -100 233 -113 107 -13 158
-31 215 -72 71 -52 82 -56 199 -71 59 -8 146 -26 192 -40 112 -34 153 -34 180
0 12 15 21 41 21 59 l0 33 -72 0 c-57 0 -98 7 -184 36 -112 36 -179 45 -215
26 -24 -14 -26 5 -2 19 10 5 15 13 11 17 -4 4 -19 -1 -33 -10 -15 -10 -34 -15
-42 -11 -29 11 24 53 82 65 43 9 85 7 224 -10 191 -24 258 -18 308 24 37 32
26 65 -38 112 -28 20 -55 48 -60 61 -24 64 27 115 130 133 83 14 98 8 140 -54
17 -24 37 -46 45 -49 10 -4 14 -20 14 -53 -1 -42 -4 -48 -35 -67 -48 -28 -35
-31 29 -7 62 23 117 76 227 218 61 79 125 135 184 160 l29 12 -64 51 c-254
204 -605 294 -948 244z"/>
<path d="M2200 2201 c0 -6 9 -11 21 -11 14 0 19 -5 17 -17 -3 -13 -12 -17 -35
-15 -35 3 -46 -8 -161 -178 -81 -121 -149 -202 -208 -250 -36 -29 -43 -40 -48
-84 -16 -122 -64 -208 -193 -346 l-80 -84 -6 -101 c-5 -86 -22 -199 -69 -460
-6 -33 -10 -116 -8 -185 6 -324 7 -306 -19 -341 l-24 -32 99 6 c431 28 824
295 1015 692 84 176 119 333 119 538 -1 196 -35 356 -115 524 -79 167 -211
336 -272 348 -21 4 -33 3 -33 -4z"/>
<path d="M250 1785 c-60 -140 -96 -360 -86 -521 22 -324 151 -603 382 -823
204 -195 448 -308 728 -337 l69 -7 -5 85 c-3 61 -10 95 -24 119 l-20 34 22 39
c18 31 20 45 13 65 -26 68 -39 225 -39 482 0 146 -3 286 -6 310 l-6 44 -117
57 c-146 72 -290 149 -455 246 -71 42 -166 88 -212 103 -98 33 -147 62 -192
113 l-32 37 -20 -46z"/>
</g>
</svg>
