<?xml version="1.0" standalone="no"?>
<!DOCTYPE svg PUBLIC "-//W3C//DTD SVG 20010904//EN"
 "http://www.w3.org/TR/2001/REC-SVG-20010904/DTD/svg10.dtd">
<svg version="1.0" xmlns="http://www.w3.org/2000/svg"
 width="900.000000pt" height="600.000000pt" viewBox="0 0 900.000000 600.000000"
 preserveAspectRatio="xMidYMid meet">

<g transform="translate(0.000000,600.000000) scale(0.100000,-0.100000)"
fill="#000000" stroke="none">
<path d="M3855 5833 c-14 -24 -16 -25 -12 -5 3 12 1 20 -4 16 -5 -3 -9 -12 -9
-20 0 -8 -5 -12 -10 -9 -6 4 -8 11 -5 16 4 5 1 9 -5 9 -7 0 -9 -7 -6 -16 3 -8
2 -12 -4 -9 -6 3 -7 -1 -3 -10 4 -12 8 -13 13 -5 5 9 10 5 15 -10 6 -18 9 -20
16 -9 7 12 9 11 9 -1 0 -13 1 -13 10 0 9 13 10 13 10 0 0 -12 2 -12 9 -1 6 9
11 10 15 2 4 -6 2 -11 -3 -11 -6 0 -11 -5 -11 -11 0 -8 6 -7 17 2 10 8 14 9
10 2 -5 -8 -1 -11 12 -8 16 3 18 0 12 -23 -5 -15 -7 -35 -5 -45 1 -11 -1 -16
-4 -12 -4 4 -7 12 -7 18 -1 7 -6 11 -13 10 -7 -2 -11 1 -9 6 1 5 -2 9 -8 10
-5 1 -10 -3 -10 -8 0 -5 -3 -12 -7 -16 -3 -4 -5 0 -4 9 1 8 5 19 9 22 17 17 5
25 -12 10 -11 -10 -18 -26 -16 -37 2 -11 0 -17 -5 -14 -6 4 -7 40 0 40 1 0 3
11 6 24 4 20 2 22 -11 11 -8 -7 -13 -16 -10 -20 3 -5 1 -11 -5 -15 -6 -4 -7
-11 -4 -17 4 -7 2 -8 -5 -4 -7 5 -9 12 -3 19 11 15 9 27 -6 52 -11 18 -12 17
-8 -12 3 -22 -1 -36 -12 -45 -15 -11 -15 -11 -6 2 5 8 9 21 8 28 -1 6 -2 19
-3 28 0 8 -5 13 -10 9 -6 -3 -8 -14 -6 -25 2 -11 0 -22 -5 -25 -5 -3 -7 3 -5
15 2 11 0 22 -6 25 -5 4 -14 15 -20 27 -8 15 -8 19 0 14 6 -4 11 -2 11 4 0 12
-31 8 -140 -20 -41 -10 -89 -21 -106 -24 -63 -11 -186 -37 -434 -91 -140 -30
-421 -91 -625 -135 -203 -44 -453 -98 -555 -120 -102 -23 -231 -51 -287 -63
l-103 -22 0 -47 c0 -26 7 -150 15 -275 8 -125 22 -331 30 -458 8 -126 26 -401
40 -610 13 -209 27 -414 30 -455 14 -200 37 -546 55 -840 11 -179 23 -347 25
-375 2 -27 16 -232 30 -455 14 -222 29 -407 33 -411 4 -4 111 -59 237 -124
127 -65 280 -143 340 -175 61 -32 250 -128 420 -215 171 -87 333 -170 360
-185 28 -15 190 -98 360 -185 171 -87 360 -183 420 -215 335 -175 605 -310
619 -310 9 0 54 20 99 44 80 42 251 130 722 371 127 65 307 157 400 205 94 48
269 138 390 200 121 62 274 141 340 175 165 86 755 387 783 400 29 13 29 13
42 245 6 107 13 220 16 250 5 64 25 372 54 825 11 176 22 349 25 385 6 63 38
560 110 1679 19 299 33 546 31 548 -2 2 -230 -64 -507 -148 -277 -83 -589
-175 -694 -205 -104 -30 -198 -57 -207 -60 -14 -4 -18 0 -17 18 0 22 1 22 9 3
l9 -20 0 20 c1 17 3 17 11 5 9 -13 10 -13 10 0 0 13 1 13 10 0 7 -11 10 -11
10 -2 0 7 4 11 9 7 5 -3 12 -1 16 5 4 6 10 8 15 5 5 -3 12 -1 15 5 4 6 3 10
-2 9 -20 -4 -24 2 -12 19 11 15 11 15 -1 4 -8 -7 -15 -18 -15 -25 0 -7 -7 -12
-15 -12 -16 -1 -41 26 -35 36 2 3 -2 6 -10 6 -8 0 -14 -3 -13 -6 2 -20 -3 -31
-12 -26 -5 3 -7 13 -4 23 5 14 4 15 -5 2 -9 -13 -11 -13 -11 0 0 13 -1 13 -10
0 -5 -8 -10 -12 -11 -7 -1 4 -3 12 -4 17 -1 6 -3 13 -4 16 0 4 -9 0 -18 -7
-15 -12 -16 -12 -10 3 4 11 2 17 -5 15 -7 -1 -12 3 -13 10 0 7 -7 18 -15 25
-12 11 -12 11 -4 -2 9 -14 10 -25 5 -47 -3 -9 -25 39 -23 49 2 8 -25 4 -35 -6
-4 -4 -3 -6 2 -4 6 1 11 0 13 -4 1 -5 -1 -8 -5 -9 -5 0 -14 -6 -22 -12 -12
-10 -13 -9 -8 6 10 26 -1 41 -19 26 -16 -13 -19 2 -3 18 8 8 8 13 0 18 -6 3
-10 1 -9 -6 3 -13 -40 -20 -48 -7 -3 4 -10 5 -16 2 -8 -5 -9 -1 -5 12 7 18 6
18 -6 2 -8 -10 -17 -15 -21 -11 -3 3 1 14 10 24 10 11 12 19 4 24 -6 4 -9 1
-8 -7 2 -7 -3 -12 -10 -10 -8 1 -11 -2 -8 -7 4 -5 2 -12 -4 -16 -10 -6 -15 9
-10 30 1 6 -2 7 -6 2 -4 -4 -16 1 -27 10 -14 13 -18 14 -12 3 13 -20 15 -40 5
-40 -4 0 -11 12 -14 26 -7 25 -8 26 -22 8 -13 -16 -14 -17 -12 -2 2 9 -1 17
-7 17 -5 0 -8 -8 -7 -17 3 -14 1 -15 -9 -4 -11 10 -11 17 -1 32 7 12 8 21 2
25 -6 4 -9 3 -8 -2 2 -4 -1 -8 -7 -8 -5 0 -8 4 -7 10 2 5 0 7 -4 3 -4 -4 -13
-3 -21 4 -11 9 -13 8 -11 -2 2 -7 -7 -13 -20 -15 -16 -1 -21 3 -18 12 3 8 1
11 -4 8 -6 -3 -10 -1 -10 6 0 7 -3 10 -6 7 -3 -4 0 -16 6 -28 6 -12 9 -24 7
-27 -3 -3 -12 8 -21 25 -10 19 -12 32 -5 39 6 6 5 10 -5 10 -9 0 -13 -8 -10
-24 3 -15 1 -22 -6 -18 -5 3 -10 16 -11 28 -1 20 -2 20 -9 -3 -9 -28 -12 -26
-14 12 0 14 -4 30 -8 33 -4 4 -5 -5 -2 -20 4 -25 3 -27 -10 -15 -9 7 -13 16
-10 21 3 5 0 8 -7 7 -7 -2 -13 2 -14 9 0 19 -12 25 -12 6 0 -48 -3 -58 -12
-43 -6 8 -7 18 -4 22 2 5 -1 15 -7 24 -10 12 -16 12 -28 2 -14 -11 -15 -10 -9
7 7 18 6 19 -6 3 -8 -10 -17 -15 -21 -11 -3 3 2 16 11 27 14 15 14 18 2 8 -9
-6 -19 -8 -23 -4 -4 4 -6 3 -4 -3 2 -5 -1 -10 -7 -10 -5 0 -9 7 -8 15 1 9 0
10 -3 3 -3 -7 -13 -9 -22 -6 -13 4 -14 3 -4 -5 11 -7 11 -10 -1 -15 -18 -7
-30 16 -15 31 6 6 6 12 -1 17 -6 3 -10 3 -9 -2 2 -4 -2 -8 -7 -8 -6 0 -9 8 -9
17 1 10 -3 15 -7 12 -5 -3 -7 -9 -4 -14 3 -4 -2 -13 -10 -20 -13 -11 -15 -10
-12 6 1 11 6 24 10 31 4 6 2 15 -4 19 -7 4 -9 3 -5 -4 3 -6 2 -13 -4 -17 -6
-4 -8 -10 -6 -14 3 -4 1 -13 -5 -21 -7 -12 -9 -11 -9 6 0 37 -41 54 -60 24 -9
-13 -10 -13 -10 1 0 8 5 20 11 26 8 8 8 13 0 18 -6 3 -11 3 -10 -2 1 -4 -2
-19 -6 -31 -6 -17 -10 -20 -16 -11 -4 7 -3 19 3 26 6 8 8 16 4 20 -3 3 -6 1
-6 -6 0 -7 -5 -9 -10 -6 -8 5 -7 12 2 23 9 12 6 11 -10 -2 -12 -11 -22 -26
-22 -35 0 -14 -2 -14 -10 -1 -6 10 -3 22 13 40 l22 25 -27 -24 c-16 -14 -28
-20 -28 -14 0 5 3 13 7 17 4 3 8 14 9 22 1 9 -1 13 -4 9 -4 -4 -7 -10 -8 -13
-2 -20 -17 -41 -26 -36 -5 4 -5 11 2 19 7 9 6 16 -7 26 -16 13 -17 12 -5 -3 8
-10 9 -19 3 -22 -5 -3 -12 0 -14 6 -4 10 -6 10 -6 0 -1 -7 -6 -10 -11 -7 -8 5
-7 12 2 23 11 15 11 15 -4 4 -11 -9 -18 -10 -23 -2 -3 6 -11 8 -16 5 -8 -5
-13 7 -10 27 1 9 -28 3 -40 -9 -6 -6 -9 -21 -7 -34 2 -17 9 -24 25 -23 15 1
20 -3 16 -15 -4 -14 -3 -14 6 -1 9 13 11 13 11 0 0 -12 2 -12 9 -2 6 10 11 6
19 -17 13 -35 27 -43 17 -8 -5 17 -4 19 4 7 10 -13 11 -13 11 0 0 13 1 13 10
0 9 -13 10 -13 10 0 1 9 6 5 16 -10 l15 -25 -6 25 -6 25 14 -24 c8 -13 16 -20
19 -15 3 5 4 4 2 -2 -1 -7 9 -10 27 -9 16 1 26 -2 23 -6 -3 -5 0 -8 8 -7 7 2
12 -4 10 -14 -1 -9 2 -19 8 -23 7 -4 9 3 6 19 -3 14 0 29 6 32 7 5 9 0 6 -14
-4 -12 -2 -20 3 -16 5 3 6 -3 3 -13 -5 -15 -4 -16 5 -3 9 13 11 13 11 0 0 -13
1 -13 10 0 9 13 10 13 10 0 0 -13 1 -13 10 0 9 13 10 13 10 0 0 -13 2 -13 11
0 9 13 10 12 5 -3 -3 -10 -2 -15 3 -12 5 3 12 1 16 -5 4 -6 11 -7 17 -4 7 4 8
2 4 -4 -4 -7 1 -10 14 -7 11 2 22 -1 25 -6 4 -5 10 -7 15 -4 5 3 13 -3 19 -12
8 -14 10 -15 11 -3 0 13 1 13 10 0 9 -13 10 -13 10 0 0 8 9 2 20 -15 11 -17
20 -23 20 -15 0 13 1 13 10 0 9 -13 10 -13 10 0 0 13 1 13 10 0 7 -11 10 -11
10 -2 0 7 5 10 11 6 8 -5 8 -9 -1 -14 -9 -5 -9 -9 -1 -14 6 -4 11 -1 11 6 0 9
3 9 10 -2 9 -13 10 -13 10 0 0 12 2 13 9 1 5 -7 11 -9 13 -5 3 5 3 3 1 -4 -1
-7 1 -10 6 -7 5 3 12 1 16 -5 4 -6 11 -7 17 -4 7 4 8 2 4 -4 -4 -7 1 -10 14
-7 11 2 18 0 15 -5 -3 -5 4 -7 15 -5 11 2 18 0 15 -5 -3 -5 4 -7 15 -5 13 3
18 0 14 -7 -4 -6 -3 -8 4 -4 6 3 16 -2 22 -11 11 -16 11 -16 6 2 -6 20 -6 20
9 1 11 -14 15 -16 15 -5 0 12 2 12 9 0 7 -11 9 -11 13 0 3 10 6 10 12 1 4 -7
2 -12 -4 -12 -6 0 -8 -5 -4 -11 4 -8 9 -7 15 2 7 11 9 11 9 -1 0 -13 1 -13 10
0 9 13 10 13 10 0 0 -13 1 -13 11 0 8 12 9 9 4 -10 -5 -20 -4 -22 5 -10 10 13
11 13 6 -2 -3 -10 0 -20 6 -24 8 -5 9 3 5 25 -4 20 -3 30 3 26 11 -7 11 -75 1
-72 -4 1 -6 -2 -6 -8 0 -5 4 -9 9 -7 5 2 4 -4 -4 -12 -7 -9 -15 -16 -18 -16
-3 0 -2 3 1 7 4 3 0 15 -9 25 -14 15 -20 16 -33 6 -13 -11 -13 -9 1 7 15 18
15 22 1 40 -15 20 -15 20 -10 -2 6 -25 -17 -51 -28 -33 -4 6 -3 9 2 8 9 -3 13
5 13 28 0 8 -5 12 -10 9 -6 -4 -7 -12 -4 -18 4 -7 3 -8 -2 -4 -5 5 -9 13 -9
18 0 5 -4 9 -10 9 -5 0 -10 -4 -10 -9 0 -6 -7 -16 -15 -23 -12 -11 -12 -11 -2
4 9 11 10 18 2 23 -6 3 -8 10 -6 14 3 4 1 13 -5 21 -7 12 -9 11 -9 -6 0 -12
-8 -28 -17 -35 -15 -11 -16 -11 -5 1 14 17 16 54 2 45 -6 -4 -8 -10 -5 -15 3
-5 0 -12 -6 -16 -7 -4 -9 -3 -6 3 8 12 -17 36 -40 39 -8 1 -12 -3 -10 -9 2 -7
10 -12 17 -12 7 0 15 -7 17 -15 4 -13 3 -13 -6 0 -6 8 -11 11 -11 6 0 -5 -7
-3 -15 4 -9 7 -14 19 -11 26 3 7 1 16 -4 19 -6 4 -11 1 -11 -4 -3 -26 -4 -30
-11 -37 -4 -4 -2 -14 5 -23 11 -14 10 -14 -5 -2 -10 7 -15 18 -11 25 4 6 9 19
10 30 3 16 1 17 -12 6 -8 -7 -13 -16 -10 -20 3 -5 1 -11 -4 -14 -10 -7 -9 13
2 30 4 7 -1 18 -10 25 -15 12 -16 12 -9 -6 4 -11 4 -16 0 -12 -4 4 -17 -1 -28
-10 -21 -18 -21 -18 -3 3 23 28 22 41 -2 20 -13 -12 -21 -14 -26 -6 -4 6 -4
14 -1 17 3 4 6 1 6 -6 0 -7 5 -9 10 -6 8 5 7 11 -1 21 -14 17 -43 -1 -32 -20
3 -6 2 -7 -3 -3 -5 5 -9 12 -9 15 0 15 -17 32 -26 27 -5 -3 -6 2 -2 11 5 13 3
15 -8 8 -8 -5 -18 -9 -24 -9 -5 0 -8 -9 -7 -20 2 -11 1 -17 -3 -13 -7 7 -13
32 -14 61 -1 10 -6 15 -11 12 -6 -4 -7 -12 -4 -18 4 -7 4 -9 -1 -5 -4 4 -14 0
-22 -10 -13 -15 -13 -15 -4 5 7 14 8 24 1 28 -5 3 -11 4 -11 1 -3 -12 -7 -26
-9 -33 -1 -5 -2 -12 -1 -16 1 -5 -3 -6 -9 -2 -6 3 -7 12 -3 18 13 20 12 36 -3
48 -13 10 -14 8 -10 -16 3 -15 2 -25 -1 -21 -3 3 -13 0 -22 -6 -13 -10 -13 -9
1 7 12 14 14 25 8 35 -9 14 -11 13 -14 -10 0 -5 -8 -15 -16 -22 -12 -11 -12
-11 -3 2 18 25 19 26 4 44 -13 15 -15 15 -33 -1 -11 -10 -18 -13 -16 -8 2 6
-2 10 -7 10 -5 0 -9 -3 -8 -6 1 -3 -4 -6 -12 -6 -8 0 -11 5 -7 11 3 6 8 19 9
30 3 16 1 17 -12 6 -8 -7 -12 -17 -8 -23 4 -6 1 -7 -7 -2 -10 6 -12 4 -6 -11
6 -15 5 -16 -5 -7 -9 9 -9 15 0 26 9 11 8 17 -6 28 -15 12 -16 12 -10 -3 3
-10 2 -20 -4 -23 -5 -4 -7 -10 -4 -15 3 -5 1 -11 -4 -14 -10 -7 -9 19 1 30 10
9 -3 35 -13 28 -5 -3 -7 -9 -4 -14 3 -5 1 -11 -5 -15 -6 -4 -7 -11 -4 -17 4
-7 2 -8 -5 -4 -7 5 -9 12 -3 19 10 13 9 63 -1 74 -4 3 -8 -6 -8 -20 -2 -38 -3
-45 -10 -52 -4 -3 -5 14 -2 37 3 30 1 39 -6 28 -5 -8 -7 -19 -3 -25 3 -5 -2
-4 -11 4 -20 16 -23 2 -4 -19 10 -12 9 -12 -6 -1 -9 8 -17 19 -16 25 3 26 -2
47 -10 42 -4 -3 -7 -17 -6 -31 2 -14 -1 -27 -5 -30 -5 -3 -7 7 -4 21 4 24 3
26 -10 14 -9 -7 -14 -16 -11 -20 3 -5 1 -11 -4 -14 -13 -8 -8 19 7 36 6 8 9
18 5 21 -7 8 -39 -34 -35 -46 1 -5 -2 -6 -8 -2 -7 4 -3 16 10 32 30 38 24 52
-7 17 -16 -17 -22 -23 -15 -14 21 29 13 34 -15 9 -14 -13 -22 -17 -17 -9 12
22 14 39 3 46 -5 3 -9 13 -8 22 0 14 2 13 9 -3 l9 -20 1 20 1 20 10 -20 c9
-19 9 -19 5 2 -2 12 3 32 12 45 8 13 12 20 7 16 -4 -4 -15 -2 -24 5 -14 10
-14 10 -4 -3 7 -9 8 -21 4 -29 -6 -9 -10 -5 -15 15 -5 20 -10 24 -15 15 -10
-16 -19 -3 -15 22 1 11 -1 16 -4 12 -4 -4 -7 -10 -8 -13 -2 -20 -17 -41 -26
-36 -5 3 -4 12 3 20 6 8 9 17 5 21 -3 3 -6 1 -6 -6 0 -7 -5 -9 -10 -6 -6 4 -7
12 -3 18 4 8 1 7 -9 -1 -14 -11 -18 -10 -28 5 -10 16 -11 16 -6 1 3 -10 1 -20
-3 -23 -13 -7 -20 32 -9 43 6 6 6 12 -1 17 -7 4 -10 1 -9 -7 2 -7 -3 -12 -10
-10 -8 1 -11 -2 -8 -7 4 -5 2 -12 -4 -16 -5 -3 -11 1 -11 9 -3 30 -4 34 -13
43 -5 4 -6 3 -3 -3 4 -6 -2 -19 -13 -29 -18 -16 -30 -8 -13 9 4 3 8 14 9 22 1
9 -1 13 -4 9 -4 -4 -8 -11 -8 -16 -3 -22 -5 -23 -14 -9 -6 9 -5 20 3 30 9 12
9 13 -3 3 -11 -10 -18 -9 -34 5 -21 17 -21 17 -3 -4 9 -11 14 -24 10 -27 -7
-8 -39 34 -35 46 1 5 -2 6 -7 3 -5 -3 -7 -20 -5 -36 7 -40 -3 -38 -15 3 -7 25
-9 27 -10 9 -1 -13 -5 -21 -11 -17 -5 3 -7 12 -4 19 3 8 0 17 -5 21 -6 3 -9
10 -6 15 3 5 1 12 -5 15 -6 4 -9 2 -8 -3 2 -6 -1 -10 -7 -11 -5 -1 -10 3 -10
8 0 5 -4 13 -8 18 -5 4 -7 4 -5 -2 1 -5 -5 -21 -15 -35 -11 -17 -17 -19 -17
-9 0 9 3 19 7 23 13 12 11 33 -3 33 -10 0 -11 -4 -3 -13 7 -8 7 -14 -1 -19 -5
-3 -10 0 -10 7 0 10 -3 9 -11 -2 -9 -12 -10 -11 -6 8 3 12 1 20 -4 16 -5 -3
-9 -12 -9 -21 0 -9 -3 -13 -7 -9 -8 7 -9 12 -12 38 0 6 -8 3 -16 -8 -17 -22
-20 -12 -5 16 7 13 7 21 -2 26 -6 4 -9 3 -5 -2 3 -5 -1 -20 -9 -34 -14 -25
-14 -25 -10 8 3 19 2 31 -2 27 -7 -7 -8 -12 -11 -41 0 -8 -5 -13 -10 -10 -5 3
-7 15 -4 25 3 10 0 22 -5 25 -6 4 -8 -3 -5 -16 4 -20 2 -19 -12 5 -18 31 -27
36 -19 10 5 -16 4 -16 -10 1 -8 10 -13 22 -11 27 3 4 1 11 -5 14 -6 4 -9 1 -8
-5 2 -7 -5 -14 -14 -15 -16 -3 -23 7 -19 28 1 5 -3 6 -8 2 -6 -3 -7 -13 -4
-23 6 -15 5 -15 -10 -3 -14 11 -15 17 -5 30 9 12 7 11 -9 -2 -29 -25 -37 -67
-12 -62 10 2 21 -1 24 -6 4 -5 11 -7 16 -4 5 4 12 -1 15 -10 6 -13 8 -14 15
-3 7 10 9 10 9 -2 0 -13 2 -13 11 0 9 13 10 13 6 -2 -4 -12 -1 -16 14 -13 11
2 17 0 14 -5 -3 -5 4 -7 15 -5 14 3 18 0 13 -8 -4 -7 2 -5 12 3 15 12 17 12
10 1 -6 -10 -4 -12 5 -6 9 6 11 4 5 -5 -5 -8 -4 -11 3 -6 6 3 13 2 17 -3 3 -5
14 -8 25 -6 13 3 18 0 14 -7 -5 -7 -2 -8 6 -3 9 6 11 4 5 -5 -5 -9 -4 -11 4
-6 6 4 9 11 6 16 -3 5 0 12 6 16 9 5 10 0 7 -14 -4 -14 -2 -20 4 -15 7 3 8 1
4 -5 -4 -7 1 -10 14 -7 11 2 22 -1 25 -6 4 -5 11 -7 16 -4 5 3 6 -2 3 -12 -4
-14 -4 -15 4 -4 8 11 10 11 15 0 4 -11 6 -11 7 1 0 10 6 6 16 -10 l15 -25 -6
25 -6 25 15 -25 c10 -16 16 -19 16 -10 0 12 2 12 10 -2 6 -10 19 -15 30 -13
13 3 18 0 14 -7 -4 -6 -3 -8 4 -4 6 3 13 2 17 -4 4 -6 11 -8 16 -5 5 3 6 -2 3
-12 -6 -15 -4 -15 10 2 l16 20 -6 -20 c-5 -16 -4 -17 5 -5 9 13 11 13 11 0 0
-13 1 -13 10 0 9 13 10 13 10 0 0 -13 1 -13 11 0 8 12 9 9 4 -10 -5 -19 -4
-22 4 -10 8 11 11 12 11 2 0 -7 5 -10 10 -7 6 3 13 -1 16 -10 6 -13 8 -14 15
-3 7 10 9 10 9 -2 0 -13 1 -13 10 0 9 13 10 13 10 0 0 -13 1 -13 11 0 8 11 9
9 3 -10 -4 -14 -8 -35 -8 -47 -1 -12 -4 -25 -8 -28 -3 -3 -5 2 -4 12 0 10 -3
18 -9 18 -5 0 -9 -4 -7 -8 1 -5 -2 -6 -8 -2 -8 5 -8 11 0 20 7 9 6 16 -7 26
-15 12 -16 12 -10 -3 3 -10 2 -20 -4 -24 -6 -4 -5 -12 3 -22 9 -12 6 -11 -10
2 -23 20 -28 28 -13 23 13 -3 15 5 7 31 -4 12 -12 20 -17 16 -6 -3 -5 -12 3
-22 11 -15 11 -15 -3 -5 -11 9 -19 9 -26 2 -8 -8 -13 -7 -18 1 -5 8 -13 6 -28
-7 -22 -18 -22 -18 -5 2 14 17 14 23 4 37 -7 10 -16 15 -19 11 -4 -3 -2 -12 3
-18 7 -9 5 -17 -7 -26 -16 -13 -17 -12 -5 3 9 11 10 18 2 23 -6 3 -8 10 -5 14
2 5 -2 17 -10 27 -14 18 -15 18 -11 -8 3 -17 -2 -31 -12 -40 -15 -11 -15 -11
-6 2 5 8 9 21 8 28 -1 6 -2 17 -3 23 0 5 -5 8 -10 4 -6 -3 -8 -14 -6 -25 2
-11 0 -22 -5 -25 -4 -3 -7 3 -5 12 1 10 0 23 -4 28 -3 6 -6 13 -7 18 -1 4 -2
10 -3 15 -1 4 -5 0 -10 -8 -6 -8 -7 -19 -3 -25 9 -14 12 -38 4 -30 -4 4 -7 10
-7 13 0 15 -17 32 -26 26 -5 -3 -9 -2 -8 3 4 22 -2 44 -10 38 -6 -3 -8 -14 -6
-25 2 -12 0 -18 -6 -15 -5 4 -7 10 -4 15 3 5 1 11 -4 15 -6 3 -7 13 -4 23 6
15 5 15 -10 3 -14 -11 -15 -17 -6 -28 9 -11 9 -17 0 -26 -10 -9 -11 -8 -5 7 5
13 4 17 -4 12 -7 -4 -10 1 -7 14 2 11 0 22 -6 25 -5 4 -10 1 -10 -4 -1 -6 -2
-17 -3 -23 -1 -7 3 -20 8 -28 10 -13 9 -13 -6 -1 -10 7 -16 17 -13 21 3 4 -2
13 -10 20 -7 6 -11 19 -8 28 6 15 5 15 -10 3 -17 -13 -16 -15 0 -35 18 -21 18
-21 -3 -4 -16 14 -23 15 -34 5 -8 -6 -5 0 8 14 28 32 18 46 -12 15 -11 -12
-15 -15 -8 -6 18 25 14 35 -7 16 -16 -14 -20 -15 -30 -2 -8 10 -9 16 -1 21 6
3 8 11 4 16 -3 6 -12 2 -19 -8 -12 -15 -11 -21 8 -43 l22 -25 -27 24 c-15 13
-26 27 -25 31 1 5 -2 8 -8 8 -5 0 -9 -4 -8 -8 1 -4 -5 -14 -15 -22 -15 -11
-16 -11 -6 2 5 8 10 21 10 28 -1 14 -21 17 -21 3 0 -5 -3 -12 -7 -16 -3 -4 -5
0 -4 9 1 8 5 19 9 22 17 17 5 25 -13 9 -11 -10 -17 -22 -13 -28 4 -6 1 -7 -6
-2 -8 4 -9 11 -3 17 11 11 3 60 -9 52 -5 -3 -7 -10 -3 -15 3 -5 1 -8 -4 -7 -6
2 -10 -1 -10 -7 0 -5 4 -9 9 -7 14 3 11 -4 -8 -19 -10 -7 -15 -9 -10 -4 4 4 0
17 -10 27 -15 17 -17 17 -37 1 -18 -15 -17 -14 2 8 21 24 22 27 5 40 -15 12
-16 12 -10 -3 3 -10 -1 -22 -11 -30 -15 -11 -15 -11 -5 2 8 10 9 21 3 30 -9
14 -11 13 -14 -9 0 -5 -4 -13 -8 -17 -4 -4 -2 -14 5 -23 11 -14 10 -14 -6 -2
-11 9 -14 18 -8 25 9 11 -11 51 -20 41 -3 -2 -5 8 -6 23 -1 23 -1 24 7 7 l9
-20 1 20 1 20 8 -20 c5 -11 6 -26 3 -34 -3 -9 -1 -12 6 -7 7 4 10 17 6 32 -5
20 -3 23 11 18 9 -4 21 -16 26 -28 9 -20 9 -20 5 1 -2 13 0 26 5 29 5 3 10 -7
10 -23 2 -27 2 -27 6 -3 3 14 11 32 19 41 12 14 12 16 -1 16 -8 0 -12 -4 -9
-8 2 -4 0 -10 -6 -14 -10 -6 -13 3 -13 37 0 10 -3 15 -8 13 -4 -3 -6 -17 -3
-30 6 -31 -3 -32 -17 -2 l-10 22 5 -23 c3 -15 0 -22 -7 -19 -7 2 -11 13 -10
23 1 10 0 13 -3 6 -3 -6 -10 -9 -15 -6 -6 3 -5 12 3 22 9 12 6 11 -10 -2 -21
-18 -31 -11 -14 10 4 5 -3 -2 -15 -16 -27 -29 -31 -16 -6 20 14 20 14 23 1 12
-12 -10 -17 -10 -27 1 -6 8 -7 18 -3 22 4 5 1 5 -6 1 -10 -6 -10 -11 -2 -21 8
-9 8 -15 0 -20 -5 -3 -10 -1 -10 6 0 7 -7 4 -15 -7 -19 -25 -19 -11 0 26 20
38 11 39 -10 3z m-120 -90 c1 -12 -2 -20 -6 -18 -4 3 -6 13 -5 23 2 9 -3 26
-10 37 -8 11 -14 24 -14 30 1 18 34 -49 35 -72z m-42 53 c3 -8 -2 -20 -11 -27
-14 -11 -15 -11 -5 0 6 7 9 20 6 27 -3 8 -3 14 0 14 3 0 7 -6 10 -14z m217 4
c0 -5 -5 -10 -11 -10 -5 0 -7 5 -4 10 3 6 8 10 11 10 2 0 4 -4 4 -10z m61 -37
c9 -9 7 -11 -7 -8 -11 2 -21 4 -24 5 -3 1 -9 2 -13 1 -5 -1 -6 3 -3 8 8 12 33
8 47 -6z m-264 -8 c0 -8 -4 -12 -9 -9 -5 3 -6 10 -3 15 9 13 12 11 12 -6z
m403 -47 c0 16 44 8 58 -11 7 -9 17 -15 21 -13 4 3 13 -5 21 -17 12 -20 12
-21 -3 -8 -10 7 -17 10 -17 5 0 -5 -5 -1 -10 8 -6 9 -19 15 -30 13 -11 -2 -22
1 -25 6 -4 5 -11 7 -16 4 -5 -4 -12 1 -15 10 -6 13 -8 14 -15 3 -6 -9 -9 -5
-9 12 l1 25 19 -24 c11 -13 20 -19 20 -13z m-155 -27 c3 -5 2 -12 -3 -15 -5
-3 -9 1 -9 9 0 17 3 19 12 6z m342 -28 c-4 -3 -2 -12 4 -19 14 -17 -17 -12
-34 6 -8 9 -8 11 0 6 6 -3 14 -2 18 4 3 5 9 10 12 10 4 0 3 -3 0 -7z m110 -47
c-3 -7 1 -13 8 -13 8 0 11 7 7 15 -3 10 -1 13 6 8 6 -3 10 -15 9 -26 -1 -14
-4 -16 -14 -8 -7 6 -13 7 -13 3 0 -4 -6 -2 -13 4 -8 6 -17 7 -22 3 -4 -4 -2 3
4 16 12 23 36 21 28 -2z m113 -63 c0 -22 -8 -14 -19 20 -10 29 -9 30 4 13 8
-11 15 -26 15 -33z m69 -8 c17 15 19 14 24 -6 5 -19 8 -20 21 -9 13 10 16 10
16 -3 0 -12 -25 -17 -37 -7 -2 2 -12 3 -24 4 -11 0 -27 10 -35 20 -9 13 -14
15 -14 6 0 -7 -3 -11 -6 -7 -4 3 -3 14 1 24 6 16 8 14 22 -10 14 -27 16 -28
32 -12z m-294 -4 c3 -5 2 -12 -3 -15 -5 -3 -9 1 -9 9 0 17 3 19 12 6z m404
-37 c1 18 13 17 13 -1 0 -4 4 -13 9 -20 12 -14 -7 -12 -35 4 -12 7 -16 15 -11
24 7 10 10 8 16 -7 7 -19 8 -19 8 0z m83 -22 c3 7 7 3 10 -9 4 -14 2 -22 -6
-20 -6 1 -12 -13 -12 -33 -1 -19 -3 -39 -4 -45 -1 -5 -2 -14 -1 -18 1 -5 -3
-6 -9 -2 -6 4 -7 12 -3 18 13 19 9 102 -5 100 -7 -2 -9 4 -5 14 6 14 7 14 19
-1 9 -13 13 -14 16 -4z m90 -50 c-5 -14 -7 -12 -13 8 l-7 25 -2 -25 c-2 -19
-4 -20 -7 -7 -3 10 -2 26 2 35 6 16 8 16 20 -1 8 -11 11 -26 7 -35z m58 -31
c-1 -11 -5 -8 -15 9 -8 14 -14 19 -15 11 0 -11 -3 -12 -11 -4 -6 6 -8 16 -4
23 9 15 45 -16 45 -39z m-283 22 c-4 -3 -1 -13 6 -22 11 -14 10 -14 -5 -2 -16
12 -16 31 -1 31 4 0 3 -3 0 -7z m312 -16 c8 -10 7 -14 -4 -14 -8 0 -15 6 -15
14 0 7 2 13 4 13 2 0 9 -6 15 -13z m88 -40 c2 -17 1 -19 -7 -7 -11 17 -14 47
-3 36 4 -3 8 -17 10 -29z m54 -20 c-10 -9 -11 -8 -5 6 3 10 9 15 12 12 3 -3 0
-11 -7 -18z m42 -13 c5 -30 -8 -20 -18 15 -4 15 -3 21 3 17 5 -3 12 -17 15
-32z m77 -37 c11 -22 11 -22 -5 -2 -9 11 -21 19 -26 17 -6 -1 -8 2 -4 8 8 13
22 4 35 -23z m70 -16 c1 10 5 9 15 -5 11 -14 15 -16 15 -5 0 11 2 11 9 1 7
-11 9 -10 15 3 7 18 30 10 23 -8 -2 -7 0 -21 5 -32 l9 -20 -16 20 c-9 11 -25
21 -35 21 -11 1 -22 3 -25 4 -3 1 -10 3 -15 4 -6 0 -15 8 -20 16 -7 11 -10 11
-10 2 0 -7 -5 -10 -11 -6 -8 4 -7 9 2 15 9 6 18 3 27 -8 9 -13 12 -14 12 -2z
m-154 -26 c-1 -8 -5 -17 -8 -21 -5 -4 -4 16 1 34 3 9 9 -1 7 -13z m300 -27
c16 -18 20 -25 9 -17 -11 9 -27 15 -36 14 -12 -2 -15 3 -12 16 3 10 6 19 7 19
1 0 15 -15 32 -32z m-169 -25 c-4 -3 -1 -13 6 -22 11 -14 10 -14 -5 -2 -16 12
-16 31 -1 31 4 0 3 -3 0 -7z m247 -19 c3 -8 2 -12 -4 -9 -6 3 -10 10 -10 16 0
14 7 11 14 -7z m110 -25 c13 -26 13 -29 1 -19 -8 7 -15 9 -15 5 0 -4 -7 -2
-15 5 -8 7 -15 9 -15 5 0 -4 -6 -2 -13 4 -8 6 -17 8 -21 4 -4 -4 -4 1 0 10 4
10 13 16 20 13 7 -3 16 -1 19 5 9 13 21 3 39 -32z m-300 22 c3 -5 -2 -15 -12
-22 -15 -12 -16 -12 -5 2 7 9 10 19 6 22 -3 4 -4 7 0 7 3 0 8 -4 11 -9z m12
-29 c-17 -16 -18 -16 -5 5 7 12 15 20 18 17 3 -2 -3 -12 -13 -22z m354 -16 c0
-15 -24 -16 -37 -1 -4 4 -3 5 4 1 6 -3 14 -2 18 4 9 14 15 12 15 -4z m49 -14
c7 -14 6 -19 -4 -19 -7 0 -13 9 -12 19 1 10 2 18 4 18 1 0 7 -8 12 -18z m-298
-15 c-10 -9 -11 -8 -5 6 3 10 9 15 12 12 3 -3 0 -11 -7 -18z m385 -19 c3 -4
12 -4 19 -2 15 6 30 -30 19 -47 -4 -8 -3 -9 4 -5 7 4 12 13 12 21 0 8 5 17 11
21 7 4 9 0 5 -14 -7 -22 8 -39 19 -22 4 6 10 8 15 5 5 -3 12 0 16 7 6 9 12 -1
20 -27 8 -25 13 -32 13 -18 1 27 17 38 25 17 5 -14 9 -14 23 -3 9 8 14 9 10 3
-4 -7 0 -17 8 -24 8 -7 15 -9 15 -5 0 4 6 2 14 -4 16 -14 7 -65 -12 -67 -7 -1
-13 -2 -14 -4 -2 -1 -11 -3 -20 -5 -12 -2 -15 2 -10 13 5 15 4 15 -11 3 -9 -7
-14 -17 -11 -22 9 -16 -3 -10 -17 8 -8 9 -9 14 -3 10 7 -4 17 -1 23 7 9 10 7
17 -6 27 -15 12 -16 12 -9 -6 4 -11 4 -16 0 -12 -13 12 -35 -14 -24 -28 7 -9
5 -16 -7 -26 -16 -13 -17 -12 -5 3 9 11 10 18 2 23 -7 4 -3 15 10 32 11 14 17
30 13 36 -4 6 -9 2 -14 -9 -4 -11 -15 -26 -25 -34 -18 -14 -18 -13 0 8 16 18
17 26 7 44 l-12 23 5 -22 c2 -14 -4 -28 -18 -40 -21 -18 -21 -18 -5 2 16 20
15 60 -1 50 -5 -3 -7 -12 -4 -19 3 -7 -3 -19 -13 -26 -15 -12 -16 -12 -5 0 19
22 14 35 -6 17 -15 -14 -19 -14 -19 -3 0 8 4 14 8 13 4 -1 7 3 8 8 1 6 -7 10
-16 10 -10 -1 -17 -6 -15 -13 1 -7 -4 -11 -10 -9 -7 1 -12 -4 -10 -11 1 -8 -2
-11 -8 -7 -8 5 -6 13 5 25 9 10 12 20 8 23 -5 3 -10 20 -11 38 -1 18 -5 35 -8
38 -3 4 -4 -15 -3 -41 2 -29 -2 -52 -9 -58 -8 -7 -9 -7 -4 0 5 6 6 32 2 59 -5
37 -3 48 7 47 7 -1 15 -5 19 -8z m-205 -31 c-6 -8 -7 -18 -3 -22 4 -5 1 -5 -6
-1 -10 6 -10 11 -1 22 6 8 14 14 16 14 3 0 0 -6 -6 -13z m46 -14 c-4 -3 -1
-13 6 -22 11 -14 10 -14 -5 -2 -16 12 -16 31 -1 31 4 0 3 -3 0 -7z m463 -62
c0 -4 -6 -8 -14 -8 -8 0 -12 6 -9 14 5 13 23 9 23 -6z m1109 -623 c-23 -150
-64 -419 -100 -653 -15 -104 -37 -249 -48 -321 -12 -71 -37 -240 -57 -375 -19
-134 -53 -361 -74 -504 -21 -143 -46 -312 -55 -375 -9 -63 -22 -120 -29 -126
-20 -20 -496 -257 -503 -250 -4 3 -33 126 -65 274 -103 469 -158 722 -195 899
-20 95 -38 172 -39 170 -3 -3 -47 -254 -204 -1167 -45 -261 -87 -480 -93 -486
-21 -21 -495 -259 -502 -253 -7 8 -50 268 -261 1569 -30 184 -70 432 -89 551
-44 269 -44 263 -2 276 17 6 128 48 245 93 118 45 215 80 217 78 2 -3 65 -452
147 -1055 18 -128 33 -231 35 -229 2 2 22 108 43 237 43 249 92 534 164 953
25 143 49 262 53 266 4 4 40 19 78 33 66 24 360 137 397 152 19 7 18 9 47
-125 30 -143 76 -356 115 -535 19 -88 51 -236 71 -330 21 -93 40 -174 43 -180
4 -5 12 33 18 85 14 117 100 785 120 935 8 61 19 155 25 210 7 55 15 104 20
109 10 11 482 194 490 190 3 -2 -2 -54 -12 -116z m-4506 -67 c117 -32 278 -96
409 -161 311 -156 528 -360 657 -618 62 -124 120 -326 137 -479 l7 -62 -129
45 c-234 83 -499 176 -517 181 -9 3 -20 17 -22 32 -33 169 -80 268 -169 356
-90 90 -182 137 -277 143 -62 4 -67 3 -97 -27 -62 -63 -50 -172 31 -268 45
-54 114 -108 354 -277 555 -393 777 -662 873 -1056 31 -126 34 -338 6 -450
-42 -175 -150 -327 -272 -385 -64 -30 -168 -55 -235 -55 -289 -1 -817 239
-1087 495 -111 104 -186 206 -259 352 -110 216 -156 373 -188 640 -2 17 -1 33
1 36 3 3 103 -29 222 -70 119 -41 266 -92 326 -112 60 -21 113 -44 117 -52 3
-8 16 -63 27 -124 44 -229 165 -400 348 -487 79 -38 97 -43 161 -43 85 0 115
17 151 86 45 85 16 218 -74 341 -46 62 -157 156 -348 293 -385 276 -594 486
-720 725 -87 165 -126 319 -126 496 0 130 12 189 60 289 56 118 133 188 247
226 79 26 273 21 386 -10z"/>
<path d="M5567 5157 c3 -4 8 -6 11 -3 3 3 10 1 17 -4 8 -7 12 -6 12 3 0 7 -11
13 -23 13 -12 0 -20 -4 -17 -9z"/>
<path d="M5835 5058 c-9 -25 2 -53 21 -53 10 0 24 -4 31 -8 6 -4 14 -3 17 2 8
13 36 7 47 -10 7 -10 8 -8 6 10 -4 25 -32 37 -43 20 -4 -6 -11 -6 -19 1 -9 8
-15 8 -20 0 -10 -16 -24 -2 -18 19 5 21 -15 39 -22 19z m12 -20 c-3 -8 -6 -5
-6 6 -1 11 2 17 5 13 3 -3 4 -12 1 -19z"/>
<path d="M5988 4994 c-3 -13 4 -31 23 -51 29 -33 38 -33 40 1 1 18 2 18 9 -4
8 -24 8 -24 9 -2 1 32 1 32 -3 30 -2 -2 -13 5 -24 15 -15 14 -22 15 -28 6 -5
-9 -9 -8 -14 6 -6 18 -7 18 -12 -1z m54 -47 c-5 -18 -7 -19 -10 -4 -2 9 -7 15
-12 12 -4 -3 -14 3 -21 12 -8 10 -9 14 -2 10 6 -4 15 -3 18 3 12 19 34 -8 27
-33z"/>
<path d="M6016 4972 c-3 -5 1 -9 9 -9 8 0 12 4 9 9 -3 4 -7 8 -9 8 -2 0 -6 -4
-9 -8z"/>
<path d="M3755 5824 c-9 -9 -14 -21 -13 -26 5 -13 23 -6 23 9 0 6 4 15 9 20 5
4 7 3 3 -2 -3 -6 -2 -17 2 -24 6 -9 9 -4 9 13 0 30 -10 33 -33 10z"/>
<path d="M3810 5781 c0 -6 4 -13 10 -16 6 -3 7 1 4 9 -7 18 -14 21 -14 7z"/>
<path d="M3856 5753 c-6 -14 -5 -15 5 -6 7 7 10 15 7 18 -3 3 -9 -2 -12 -12z"/>
<path d="M3891 5744 c-1 -6 6 -17 14 -24 13 -10 15 -9 15 11 0 17 -3 20 -9 10
-7 -11 -9 -11 -14 0 -3 8 -6 9 -6 3z"/>
<path d="M3996 5715 c4 -8 8 -15 10 -15 2 0 4 7 4 15 0 8 -4 15 -10 15 -5 0
-7 -7 -4 -15z"/>
<path d="M4035 5690 c6 -8 10 -18 10 -22 0 -17 13 -16 29 1 17 19 17 19 -1 17
-10 -2 -24 2 -32 8 -12 9 -13 8 -6 -4z"/>
<path d="M4110 5659 c0 -11 4 -18 10 -14 5 3 7 12 3 20 -7 21 -13 19 -13 -6z"/>
<path d="M4150 5640 c8 -16 15 -20 18 -12 3 10 7 9 16 -4 12 -16 13 -16 20 2
4 10 4 15 0 11 -4 -4 -13 -2 -21 4 -7 6 -13 8 -13 4 0 -4 -7 -1 -17 6 -15 13
-15 12 -3 -11z"/>
<path d="M4234 5622 c3 -6 2 -13 -4 -17 -6 -4 -8 -11 -4 -16 4 -6 13 -4 23 5
10 9 20 15 22 14 2 -2 3 -1 1 2 -2 3 -7 5 -10 5 -4 0 -13 4 -21 9 -9 6 -12 5
-7 -2z"/>
<path d="M4326 5575 c-3 -8 -1 -17 3 -20 5 -3 11 2 15 10 3 8 1 17 -3 20 -5 3
-11 -2 -15 -10z"/>
<path d="M4366 5568 c3 -5 10 -6 15 -3 13 9 11 12 -6 12 -8 0 -12 -4 -9 -9z"/>
<path d="M4440 5538 c0 -9 5 -20 10 -23 13 -8 13 5 0 25 -8 13 -10 13 -10 -2z"/>
<path d="M4493 5515 c0 -8 4 -12 9 -9 5 3 6 10 3 15 -9 13 -12 11 -12 -6z"/>
<path d="M4556 5497 c3 -10 9 -15 12 -12 3 3 0 11 -7 18 -10 9 -11 8 -5 -6z"/>
<path d="M4590 5470 c0 -4 8 -14 19 -24 15 -13 20 -14 29 -3 6 7 8 17 4 22 -8
12 -52 16 -52 5z"/>
<path d="M4890 5476 c0 -2 8 -10 18 -17 15 -13 16 -12 3 4 -13 16 -21 21 -21
13z"/>
<path d="M4710 5435 c0 -2 7 -8 15 -15 12 -10 15 -10 15 2 0 8 -7 15 -15 15
-8 0 -15 -1 -15 -2z"/>
<path d="M4803 5394 c0 -9 4 -11 12 -4 7 5 14 9 16 7 2 -1 3 0 1 2 -7 11 -29
7 -29 -5z"/>
<path d="M5130 5386 c0 -2 8 -10 18 -17 15 -13 16 -12 3 4 -13 16 -21 21 -21
13z"/>
<path d="M4996 5332 c-3 -5 1 -9 9 -9 8 0 12 4 9 9 -3 4 -7 8 -9 8 -2 0 -6 -4
-9 -8z"/>
<path d="M5041 5314 c6 -7 16 -11 21 -8 11 7 3 17 -18 20 -12 2 -13 -1 -3 -12z"/>
<path d="M5154 5272 c4 -3 14 -7 22 -8 9 -1 13 0 10 4 -4 3 -14 7 -22 8 -9 1
-13 0 -10 -4z"/>
<path d="M5200 5266 c0 -2 8 -10 18 -17 15 -13 16 -12 3 4 -13 16 -21 21 -21
13z"/>
<path d="M5246 5238 c3 -5 10 -6 15 -3 13 9 11 12 -6 12 -8 0 -12 -4 -9 -9z"/>
<path d="M5290 5223 c0 -21 21 -26 37 -8 4 4 3 5 -4 1 -6 -3 -16 2 -22 11 -9
16 -10 16 -11 -4z"/>
<path d="M5350 5203 c13 -27 27 -36 35 -23 4 6 2 9 -4 8 -5 -2 -17 6 -26 17
-16 20 -16 20 -5 -2z"/>
<path d="M5400 5186 c0 -2 8 -10 18 -17 15 -13 16 -12 3 4 -13 16 -21 21 -21
13z"/>
<path d="M5467 5160 c7 -8 20 -15 29 -16 9 -1 13 1 9 4 -4 4 -10 7 -13 7 -4 0
-14 4 -22 9 -12 7 -13 6 -3 -4z"/>
<path d="M5560 5127 c0 -2 6 -10 14 -16 11 -9 16 -9 22 1 4 7 4 10 -1 6 -4 -4
-14 -3 -22 3 -7 6 -13 9 -13 6z"/>
<path d="M5730 5064 c0 -6 3 -14 8 -18 4 -4 7 -12 7 -17 0 -5 3 -9 8 -9 10 0
7 12 -9 35 -8 11 -14 15 -14 9z"/>
<path d="M6030 5056 c0 -2 8 -10 18 -17 15 -13 16 -12 3 4 -13 16 -21 21 -21
13z"/>
</g>
</svg>
